<mxfile host="app.diagrams.net" modified="2023-04-03T08:50:31.935Z" agent="Mozilla/5.0 (X11; Linux x86_64) AppleWebKit/537.36 (KHTML, like Gecko) Chrome/111.0.0.0 Safari/537.36" version="21.1.1" etag="huXfWxNPoozqpI0AeAFe" type="github">
  <diagram name="Page-1" id="fkJfNyNkWkKWQ3kY6hYl">
    <mxGraphModel>
      <root>
        <mxCell id="0" />
        <mxCell id="1" parent="0" />
      </root>
    </mxGraphModel>
  </diagram>
</mxfile>
